<svg width="77" height="77" fill="none" xmlns="http://www.w3.org/2000/svg"><g opacity=".401" stroke-width="2" stroke-linecap="round" stroke-linejoin="round"><path d="M8.919 45.945v14.789M33.353 62.9L14.166 43.78M60.86 68.128H46.02M43.846 14.202l19.187 19.12M16.34 8.973h14.84M68.28 45.945v14.789" stroke="#B2B2B2"/><g clip-rule="evenodd" stroke="#1A1A1A"><path d="M16.34 8.973c0 4.084-3.322 7.395-7.42 7.395S1.5 13.057 1.5 8.973C1.5 4.89 4.822 1.58 8.92 1.58s7.42 3.31 7.42 7.394zM46.02 8.973c0 4.084-3.322 7.395-7.42 7.395s-7.42-3.311-7.42-7.395c0-4.083 3.322-7.394 7.42-7.394s7.42 3.31 7.42 7.394zM75.7 8.973c0 4.084-3.322 7.395-7.42 7.395s-7.42-3.311-7.42-7.395c0-4.083 3.322-7.394 7.42-7.394s7.42 3.31 7.42 7.394zM16.34 38.55c0 4.084-3.322 7.395-7.42 7.395s-7.42-3.31-7.42-7.394 3.322-7.395 7.42-7.395 7.42 3.311 7.42 7.395zM46.02 38.55c0 4.084-3.322 7.395-7.42 7.395s-7.42-3.31-7.42-7.394 3.322-7.395 7.42-7.395 7.42 3.311 7.42 7.395zM75.7 38.55c0 4.084-3.322 7.395-7.42 7.395s-7.42-3.31-7.42-7.394 3.322-7.395 7.42-7.395 7.42 3.311 7.42 7.395zM16.34 68.128c0 4.084-3.322 7.394-7.42 7.394s-7.42-3.31-7.42-7.394 3.322-7.394 7.42-7.394 7.42 3.31 7.42 7.394zM46.02 68.128c0 4.084-3.322 7.394-7.42 7.394s-7.42-3.31-7.42-7.394 3.322-7.394 7.42-7.394 7.42 3.31 7.42 7.394zM75.7 68.128c0 4.084-3.322 7.394-7.42 7.394s-7.42-3.31-7.42-7.394 3.322-7.394 7.42-7.394 7.42 3.31 7.42 7.394z"/></g></g></svg>