<svg width="105" height="38" fill="none" xmlns="http://www.w3.org/2000/svg"><mask id="a" maskUnits="userSpaceOnUse" x="1" y="29" width="9" height="9"><path fill-rule="evenodd" clip-rule="evenodd" d="M1 29.452h8.485v8.434H1v-8.434z" fill="#fff"/></mask><g mask="url(#a)"><path fill-rule="evenodd" clip-rule="evenodd" d="M9.485 31.276l-1.526.854c-.508-.703-1.302-1.121-2.3-1.121-1.608 0-2.809 1.08-2.809 2.66 0 1.632 1.24 2.66 2.808 2.66.992 0 1.787-.4 2.32-1.115l1.45.953c-.801 1.056-2.123 1.72-3.756 1.72C2.926 37.886 1 36.113 1 33.668c0-2.445 1.926-4.217 4.672-4.217 1.646 0 3.082.691 3.813 1.824z" fill="#7F7F7F"/></g><path fill-rule="evenodd" clip-rule="evenodd" d="M15.63 37.886h-1.827v-3.51L10.273 29h2.148l2.305 3.77L17.031 29h2.082l-3.483 5.382v3.504zM22.957 36.325l1.832.006c.906 0 1.468-.229 1.468-1.08 0-.838-.562-1.06-1.468-1.06h-1.832v2.133zm0-3.688h1.674c.813 0 1.445-.184 1.445-1.047 0-.832-.643-1.028-1.452-1.028h-1.667v2.075zm4.821-1.174c0 .895-.51 1.618-1.188 1.885a2.118 2.118 0 011.364 1.992c0 1.701-1.117 2.546-3.083 2.546h-3.547V29h3.347c1.908 0 3.107.768 3.107 2.463zM31.637 37.886V29h6.58v1.624h-4.812v1.969h4.59v1.625h-4.59v2.043h4.861v1.625h-6.63zM43.62 32.808h1.844c.916 0 1.383-.35 1.383-1.104 0-.743-.49-1.074-1.383-1.074H43.62v2.178zm4.946-1.104c0 1.46-.957 2.449-2.569 2.62l2.582 3.562h-2.025l-2.443-3.536h-.491v3.536h-1.67V29h3.544c2 0 3.072 1.002 3.072 2.704zM54.697 30.582c-.989 0-1.698.38-1.698 1.03 0 .626.767.829 1.83.994l.501.08c1.59.245 2.825.914 2.825 2.404 0 1.888-1.723 2.796-3.629 2.796-1.35 0-2.787-.38-3.737-1.122l.918-1.38c.647.49 1.68.927 2.825.927.989 0 1.742-.375 1.742-1.038 0-.594-.646-.809-1.881-1.005l-.564-.086c-1.564-.244-2.704-.902-2.704-2.459 0-1.79 1.646-2.723 3.534-2.723 1.248 0 2.267.27 3.389.913l-.837 1.398c-.702-.417-1.545-.729-2.514-.729zM61.102 37.886V29h6.579v1.624H62.87v1.969h4.589v1.625h-4.59v2.043h4.862v1.625h-6.63z" fill="#7F7F7F"/><mask id="b" maskUnits="userSpaceOnUse" x="70" y="29" width="9" height="9"><path fill-rule="evenodd" clip-rule="evenodd" d="M70.3 29.452h8.357v8.434h-8.356v-8.434z" fill="#fff"/></mask><g mask="url(#b)"><path fill-rule="evenodd" clip-rule="evenodd" d="M78.657 31.276l-1.502.854c-.5-.703-1.283-1.121-2.266-1.121-1.584 0-2.766 1.08-2.766 2.66 0 1.632 1.22 2.66 2.766 2.66.977 0 1.76-.4 2.285-1.115l1.427.953c-.789 1.056-2.09 1.72-3.7 1.72-2.703 0-4.6-1.773-4.6-4.218 0-2.445 1.897-4.217 4.6-4.217 1.622 0 3.036.691 3.756 1.824z" fill="#7F7F7F"/></g><path fill-rule="evenodd" clip-rule="evenodd" d="M85.41 37.886c-2.175 0-3.683-1.229-3.683-3.642V29h1.71v5.157c0 1.428.8 2.064 1.972 2.064 1.173 0 1.974-.636 1.974-2.064V29h1.71v5.244c0 2.413-1.509 3.642-3.684 3.642zM94.448 32.808h1.844c.916 0 1.384-.35 1.384-1.104 0-.743-.49-1.074-1.384-1.074h-1.844v2.178zm4.947-1.104c0 1.46-.958 2.449-2.57 2.62l2.582 3.562h-2.025L94.94 34.35h-.49v3.536h-1.672V29h3.545c2 0 3.073 1.002 3.073 2.704z" fill="#7F7F7F"/><mask id="c" maskUnits="userSpaceOnUse" x="0" y="0" width="105" height="34"><path fill-rule="evenodd" clip-rule="evenodd" d="M0 33.42h105V0H0v33.42z" fill="#fff"/></mask><g mask="url(#c)" fill-rule="evenodd" clip-rule="evenodd" fill="#7F7F7F"><path d="M11.094 8.858l-1.221-.192c-2.601-.397-4.472-.885-4.472-2.387 0-1.564 1.733-2.476 4.145-2.476 2.116 0 3.982.597 5.577 1.437l2.61-3.042C14.994.65 12.504 0 9.456 0 4.842 0 .817 2.24.817 6.541c0 3.745 2.786 5.322 6.609 5.91l1.376.206c3.018.47 4.6.987 4.6 2.419 0 1.589-1.843 2.489-4.256 2.489-2.593 0-4.945-.897-6.532-1.961L0 18.658c2.322 1.78 5.83 2.694 9.129 2.694 4.661 0 8.871-2.182 8.871-6.718 0-3.582-3.019-5.187-6.906-5.776zM31.046 10.89L40.303.928h-5.52l-7.3 8.273h-2.08V.928H21v20.424h4.403V12.95h2.032l7.856 8.402H41L31.046 10.89zM79.82.928v11.855c0 3.28-1.957 4.742-4.822 4.742s-4.818-1.461-4.818-4.742V.928H66v12.054c0 5.546 3.686 8.37 8.998 8.37 5.316 0 9.002-2.824 9.002-8.37V.928h-4.18zM87 .928v3.807h6.81v16.617h4.38V4.735H105V.928H87z"/><path d="M51.49 16.706c-3.79 0-6.86-2.838-6.86-6.342 0-3.5 3.07-6.342 6.86-6.342 3.785 0 6.855 2.843 6.855 6.342 0 3.504-3.07 6.342-6.856 6.342zM51.488 0c-6.196 0-11.216 4.64-11.216 10.364 0 5.724 5.02 10.365 11.216 10.365 6.19 0 11.21-4.64 11.21-10.365C62.7 4.641 57.68 0 51.49 0z"/></g></svg>