<svg width="25" height="25" viewBox="0 0 25 25" fill="none" xmlns="http://www.w3.org/2000/svg">
<path fill-rule="evenodd" clip-rule="evenodd" d="M21.3035 21.3028H17.5958V15.5007C17.5958 14.1174 17.5722 12.3375 15.6694 12.3375C13.7396 12.3375 13.4451 13.8451 13.4451 15.4021V21.3028H9.74167V9.37222H13.2958V11.0035H13.3472C13.8417 10.0653 15.0514 9.07639 16.8549 9.07639C20.6097 9.07639 21.3035 11.5465 21.3035 14.7597V21.3028ZM5.56111 7.74236C4.37014 7.74236 3.40972 6.77917 3.40972 5.59167C3.40972 4.40486 4.37014 3.44167 5.56111 3.44167C6.74722 3.44167 7.70972 4.40486 7.70972 5.59167C7.70972 6.77917 6.74722 7.74236 5.56111 7.74236ZM3.70417 21.3028H7.41597V9.37222H3.70417V21.3028ZM23.15 0H1.84375C0.826389 0 0 0.806944 0 1.80278V23.1958C0 24.1917 0.826389 25 1.84375 25H23.15C24.1694 25 24.9993 24.1917 24.9993 23.1958V1.80278C24.9993 0.806944 24.1694 0 23.15 0Z" fill="#7F7F7F"/>
</svg>
