<svg width="92" height="93" fill="none" xmlns="http://www.w3.org/2000/svg"><g opacity=".4" stroke-width="2" stroke-linecap="round" stroke-linejoin="round"><path d="M73.642 58.228a30.054 30.054 0 01-6.43 9.536A29.906 29.906 0 0146 76.55a29.906 29.906 0 01-21.213-8.787 30.034 30.034 0 01-6.429-9.536M18.357 34.873a30.062 30.062 0 016.43-9.536 30.062 30.062 0 019.535-6.429A29.907 29.907 0 0146 16.55a29.904 29.904 0 0121.212 8.787 30.048 30.048 0 016.43 9.536M69.643 72.084l4-13.856M22.357 21.017l-4 13.856" stroke="#231F20"/><path d="M34.059 46.622l7.628 7.929 16.256-16" stroke="#B2B2B2"/><path clip-rule="evenodd" d="M91 46.55c0 24.854-20.147 45-45 45-24.854 0-45-20.146-45-45 0-24.852 20.146-45 45-45 24.853 0 45 20.148 45 45z" stroke="#B2B2B2"/></g></svg>