<svg width="93" height="105" fill="none" xmlns="http://www.w3.org/2000/svg"><g opacity=".4" stroke-width="2" stroke-linecap="round" stroke-linejoin="round"><path clip-rule="evenodd" d="M46.807 33.211c-11.05 0-20 8.952-20 20 0 6.312 2.92 11.944 7.487 15.6a12.696 12.696 0 017.752-9.528l4.769 5.688 4.752-5.704a12.759 12.759 0 017.76 9.536 19.932 19.932 0 007.48-15.592c0-11.048-8.952-20-20-20z" stroke="#1A1A1A"/><path clip-rule="evenodd" d="M53.303 48.691a6.5 6.5 0 10-13 0 6.5 6.5 0 0013 0z" stroke="#1A1A1A"/><path d="M14.836 77.817l25.913 14.961M8.791 37.418v29.92m76.023-29.92v29.92M40.755 11.979L14.838 26.942m63.929 0L52.852 11.98m.003 80.799l25.913-14.96" stroke="#B2B2B2"/><path clip-rule="evenodd" d="M53.79 8.487A6.988 6.988 0 0046.803 1.5a6.988 6.988 0 106.988 6.987zM12.284 24.383a6.987 6.987 0 10-6.986 12.103 6.987 6.987 0 006.986-12.103zM5.298 68.276a6.987 6.987 0 106.986 12.1 6.987 6.987 0 00-6.986-12.1zM39.81 96.273a6.992 6.992 0 1013.984-.001 6.992 6.992 0 00-13.983.001zm41.513-15.896a6.987 6.987 0 106.985-12.102 6.987 6.987 0 00-6.985 12.102zm6.987-43.893a6.988 6.988 0 002.557-9.544 6.988 6.988 0 00-12.102 6.987 6.988 6.988 0 009.544 2.557z" stroke="#B2B2B2"/></g></svg>