<svg width="30" height="24" viewBox="0 0 30 24" fill="none" xmlns="http://www.w3.org/2000/svg">
<path fill-rule="evenodd" clip-rule="evenodd" d="M9.22744 23.125C20.3121 23.125 26.3776 14.2255 26.3776 6.52098C26.3776 6.27061 26.3776 6.02024 26.3658 5.76987C27.5413 4.95048 28.5639 3.91486 29.375 2.74268C28.2936 3.20928 27.1299 3.51655 25.9074 3.66449C27.1534 2.94753 28.1055 1.79811 28.5639 0.432456C27.4002 1.1039 26.1072 1.58188 24.7319 1.84363C23.627 0.705586 22.0636 0 20.3356 0C17.0091 0 14.3055 2.6175 14.3055 5.83815C14.3055 6.29337 14.3642 6.73721 14.4583 7.16966C9.45078 6.93067 5.0075 4.59769 2.03356 1.06976C1.51636 1.93467 1.22249 2.93615 1.22249 4.00591C1.22249 6.03162 2.29217 7.81834 3.90256 8.86534C2.91517 8.8312 1.98654 8.56945 1.17547 8.137C1.17547 8.15976 1.17547 8.18252 1.17547 8.21666C1.17547 11.039 3.25605 13.4061 6.00665 13.941C5.5012 14.0776 4.97224 14.1459 4.41977 14.1459C4.03186 14.1459 3.65571 14.1117 3.29132 14.0434C4.05537 16.365 6.28877 18.0493 8.92182 18.0949C6.85299 19.6654 4.2552 20.5985 1.43407 20.5985C0.952131 20.5985 0.470188 20.5758 0 20.5189C2.65656 22.1577 5.83033 23.125 9.22744 23.125Z" fill="#7F7F7F"/>
</svg>
