<svg width="32" height="23" viewBox="0 0 32 23" fill="none" xmlns="http://www.w3.org/2000/svg">
<path fill-rule="evenodd" clip-rule="evenodd" d="M12.6776 16.2484V6.75159L21.0085 11.5002L12.6776 16.2484ZM31.2089 3.76345C30.8423 2.38042 29.7622 1.29135 28.3908 0.921734C25.9051 0.25 15.9375 0.25 15.9375 0.25C15.9375 0.25 5.96986 0.25 3.48415 0.921734C2.11281 1.29135 1.03268 2.38042 0.666115 3.76345C0 6.27002 0 11.5 0 11.5C0 11.5 0 16.7298 0.666115 19.2366C1.03268 20.6196 2.11281 21.7086 3.48415 22.0784C5.96986 22.75 15.9375 22.75 15.9375 22.75C15.9375 22.75 25.9051 22.75 28.3908 22.0784C29.7622 21.7086 30.8423 20.6196 31.2089 19.2366C31.875 16.7298 31.875 11.5 31.875 11.5C31.875 11.5 31.875 6.27002 31.2089 3.76345Z" fill="#22BF95"/>
</svg>
